<svg xmlns="http://www.w3.org/2000/svg" width="147" height="32" fill="none" viewBox="0 0 147 32"><g filter="url(#a)"><path fill="#dfdfdf" d="M49.53 1.013v17.725h-3.853V1.013zm2.097 17.725V5.444h3.613v2.345h.16a3.7 3.7 0 0 1 1.424-1.843q.997-.675 2.385-.675 1.406 0 2.393.684a3.22 3.22 0 0 1 1.318 1.834h.142q.418-1.142 1.513-1.826 1.102-.692 2.607-.692 1.912 0 3.106 1.186 1.2 1.176 1.2 3.34v8.94h-3.781v-8.213q0-1.107-.605-1.661-.606-.554-1.513-.554-1.032 0-1.61.64-.579.632-.579 1.67v8.119h-3.675v-8.292q0-.977-.578-1.557-.57-.58-1.504-.58a2.13 2.13 0 0 0-1.931 1.168q-.294.545-.294 1.281v7.98zm25.752.251q-1.31 0-2.332-.442a3.73 3.73 0 0 1-1.62-1.324q-.587-.882-.587-2.198 0-1.109.418-1.86a3.3 3.3 0 0 1 1.14-1.213 5.6 5.6 0 0 1 1.637-.692 13 13 0 0 1 1.94-.329q1.192-.12 1.922-.225.73-.112 1.059-.329.33-.216.33-.64v-.052q0-.822-.535-1.272-.525-.45-1.495-.45-1.023 0-1.628.44-.605.434-.801 1.091l-3.506-.277a4.6 4.6 0 0 1 1.05-2.094q.783-.891 2.02-1.368 1.245-.484 2.883-.484 1.14 0 2.18.26 1.05.259 1.86.804.819.546 1.29 1.402.472.849.472 2.034v8.967H81.48v-1.844h-.107q-.33.624-.88 1.1-.553.466-1.327.735-.774.26-1.788.26m1.085-2.545q.837 0 1.477-.32.641-.329 1.006-.883a2.23 2.23 0 0 0 .365-1.255v-1.41a2 2 0 0 1-.49.207q-.302.087-.685.165-.383.07-.765.13l-.694.095a4.8 4.8 0 0 0-1.166.303 1.86 1.86 0 0 0-.774.562q-.276.347-.276.866 0 .753.56 1.15.57.39 1.442.39M93.173 24q-1.843 0-3.16-.493-1.308-.485-2.082-1.325a4.03 4.03 0 0 1-1.005-1.886l3.506-.459q.159.398.507.744.347.347.917.554.578.216 1.405.217 1.237 0 2.038-.589.81-.58.81-1.947v-2.432h-.16q-.249.553-.748 1.047-.498.493-1.281.805-.783.311-1.869.311-1.539 0-2.803-.692-1.255-.7-2.002-2.138-.738-1.444-.739-3.652 0-2.259.757-3.774.756-1.514 2.01-2.267a5.3 5.3 0 0 1 2.768-.753q1.148 0 1.922.38.775.373 1.246.935.48.555.739 1.09h.142V5.445h3.764v13.424q0 1.695-.854 2.839-.854 1.142-2.367 1.713-1.503.58-3.462.58m.08-8.222q.916 0 1.548-.442.64-.45.979-1.28.347-.84.347-2.008t-.338-2.026q-.338-.865-.98-1.341-.64-.476-1.556-.476-.934 0-1.576.493-.64.484-.97 1.35t-.329 2q0 1.15.33 1.99.337.831.97 1.29.64.45 1.575.45m8.618 2.959V5.444h3.79v13.294zm1.904-15.008a2.1 2.1 0 0 1-1.451-.545q-.596-.554-.596-1.324 0-.762.596-1.307.606-.554 1.451-.554t1.442.554q.605.545.605 1.307 0 .77-.605 1.324a2.06 2.06 0 0 1-1.442.545m7.712 7.322v7.686h-3.791V5.444h3.613v2.345h.16a3.73 3.73 0 0 1 1.522-1.834q1.067-.684 2.589-.684 1.424 0 2.483.606 1.058.605 1.646 1.73.587 1.118.587 2.666v8.465h-3.791V10.93q.01-1.22-.64-1.904-.65-.692-1.789-.692-.765 0-1.352.32a2.26 2.26 0 0 0-.908.935q-.32.606-.329 1.462"/><path fill="#dfdfdf" d="M122.583 18.738h-2.313l9.717-17.725h2.278l3.666 17.725h-2.313l-2.884-14.921h-.142zm2.029-6.924h9.326l-.32 1.904h-9.326zM143 1.013l-3.026 17.725h-2.206l3.025-17.725z"/><path fill="#f550a2" fill-rule="evenodd" d="M4.05 7.78c.675-2.451 7.933-2.712 16.494-.677 8.557-2.033 15.808-1.771 16.483.679.335 1.22-1.02 2.76-3.505 4.297 2.484 1.538 3.838 3.078 3.502 4.297-.675 2.45-7.925 2.71-16.48.678-8.56 2.034-15.815 1.775-16.49-.675-.336-1.22 1.017-2.762 3.503-4.3C5.069 10.541 3.715 9 4.05 7.78m4.704 5.297c-1.309.77-2.227 1.493-2.761 2.101-.452.515-.483.768-.485.82.029.046.187.252.842.477.775.266 1.942.445 3.47.476 2.097.042 4.71-.196 7.592-.73-3.248-.957-6.131-2.11-8.384-3.302zm23.298-.158c-2.252 1.192-5.133 2.344-8.378 3.302 2.879.532 5.488.77 7.583.727 1.529-.03 2.696-.21 3.472-.476.652-.224.81-.429.84-.475-.002-.053-.032-.307-.484-.822-.534-.608-1.453-1.33-2.761-2.1zm-11.509-4.31q-.446.108-.896.226c-3.486.908-6.592 2.055-9.024 3.244 2.431 1.188 5.537 2.335 9.02 3.243q.453.117.9.226.444-.108.89-.223c3.486-.909 6.593-2.057 9.025-3.246-2.433-1.19-5.54-2.337-9.027-3.246a60 60 0 0 0-.888-.225m10.718-1.4c-2.096-.042-4.708.194-7.588.726 3.246.958 6.127 2.112 8.378 3.305l.276-.158c1.308-.77 2.227-1.492 2.76-2.1.452-.513.483-.768.484-.821-.029-.046-.186-.25-.84-.475-.774-.267-1.942-.445-3.47-.476m-21.443 0c-1.53.03-2.696.21-3.471.476-.656.225-.814.43-.842.475.002.053.033.308.485.821.534.608 1.453 1.33 2.76 2.1q.137.08.277.159c2.253-1.193 5.136-2.346 8.385-3.304-2.883-.533-5.497-.77-7.594-.727" clip-rule="evenodd"/></g><defs><filter id="a" width="147" height="32" x="0" y="0" color-interpolation-filters="sRGB" filterUnits="userSpaceOnUse"><feFlood flood-opacity="0" result="BackgroundImageFix"/><feColorMatrix in="SourceAlpha" result="hardAlpha" values="0 0 0 0 0 0 0 0 0 0 0 0 0 0 0 0 0 0 127 0"/><feOffset dy="4"/><feGaussianBlur stdDeviation="2"/><feComposite in2="hardAlpha" operator="out"/><feColorMatrix values="0 0 0 0 0 0 0 0 0 0 0 0 0 0 0 0 0 0 0.25 0"/><feBlend in2="BackgroundImageFix" result="effect1_dropShadow_6001_232"/><feBlend in="SourceGraphic" in2="effect1_dropShadow_6001_232" result="shape"/></filter></defs></svg>