<svg width="139" height="24" viewBox="0 0 139 24" fill="none" xmlns="http://www.w3.org/2000/svg">
<path d="M45.5305 1.01262V18.7378H41.6773V1.01262H45.5305Z" fill="#DFDFDF"/>
<path d="M47.6271 18.7378V5.44392H51.2399V7.7894H51.4001C51.6849 7.01046 52.1595 6.39596 52.8239 5.94591C53.4883 5.49585 54.2833 5.27083 55.2087 5.27083C56.1461 5.27083 56.944 5.49874 57.6025 5.95456C58.261 6.40462 58.7 7.01623 58.9195 7.7894H59.0619C59.3407 7.02777 59.845 6.41904 60.5746 5.96322C61.3103 5.50162 62.1794 5.27083 63.182 5.27083C64.4574 5.27083 65.4926 5.66607 66.2876 6.45655C67.0885 7.24126 67.4889 8.35485 67.4889 9.79733V18.7378H63.707V10.5243C63.707 9.78579 63.5053 9.23188 63.1019 8.8626C62.6985 8.49333 62.1942 8.30869 61.5891 8.30869C60.9009 8.30869 60.364 8.52218 59.9784 8.94915C59.5928 9.37036 59.4 9.92715 59.4 10.6195V18.7378H55.7249V10.4464C55.7249 9.79445 55.5321 9.27515 55.1465 8.88857C54.7668 8.50198 54.2655 8.30869 53.6426 8.30869C53.2214 8.30869 52.8417 8.41255 52.5036 8.62027C52.1713 8.82221 51.9073 9.10783 51.7116 9.4771C51.5158 9.84061 51.4179 10.2676 51.4179 10.758V18.7378H47.6271Z" fill="#DFDFDF"/>
<path d="M73.3786 18.9888C72.5065 18.9888 71.7294 18.8417 71.0471 18.5474C70.3649 18.2474 69.8251 17.806 69.4276 17.2232C69.036 16.6347 68.8403 15.9019 68.8403 15.0249C68.8403 14.2863 68.9797 13.6661 69.2585 13.1641C69.5373 12.6621 69.917 12.2582 70.3975 11.9524C70.8781 11.6466 71.4238 11.4158 72.0349 11.26C72.6519 11.1042 73.2985 10.9946 73.9748 10.9311C74.7697 10.8503 75.4104 10.7753 75.8969 10.7061C76.3834 10.6311 76.7363 10.5215 76.9558 10.3772C77.1753 10.233 77.2851 10.0195 77.2851 9.73675V9.68482C77.2851 9.13667 77.1071 8.71259 76.7512 8.41255C76.4012 8.11251 75.9028 7.9625 75.2562 7.9625C74.574 7.9625 74.0311 8.10963 73.6277 8.4039C73.2243 8.69239 72.9574 9.0559 72.8269 9.49441L69.3208 9.21745C69.4988 8.40967 69.8488 7.7115 70.3708 7.12297C70.8929 6.52867 71.5662 6.07284 72.3908 5.7555C73.2214 5.43238 74.1824 5.27083 75.274 5.27083C76.0333 5.27083 76.7601 5.35738 77.4542 5.53047C78.1542 5.70357 78.7741 5.97187 79.314 6.33538C79.8598 6.69888 80.2899 7.16625 80.6043 7.73747C80.9187 8.30292 81.0759 8.98089 81.0759 9.77137V18.7378H77.4809V16.8943H77.3741C77.1546 17.3098 76.8609 17.6762 76.4931 17.9935C76.1253 18.3051 75.6833 18.5503 75.1672 18.7292C74.6511 18.9023 74.0549 18.9888 73.3786 18.9888ZM74.4642 16.4443C75.0219 16.4443 75.5143 16.3375 75.9414 16.1241C76.3685 15.9048 76.7037 15.6105 76.9469 15.2413C77.1902 14.872 77.3118 14.4537 77.3118 13.9863V12.5756C77.1931 12.6506 77.03 12.7198 76.8224 12.7833C76.6207 12.841 76.3923 12.8958 76.1372 12.9477C75.8821 12.9939 75.627 13.0371 75.3719 13.0775C75.1168 13.1122 74.8854 13.1439 74.6778 13.1727C74.2328 13.2362 73.8443 13.3372 73.5121 13.4757C73.1798 13.6141 72.9218 13.8017 72.7379 14.0382C72.554 14.269 72.462 14.5575 72.462 14.9037C72.462 15.4057 72.6489 15.7894 73.0226 16.0548C73.4023 16.3145 73.8828 16.4443 74.4642 16.4443Z" fill="#DFDFDF"/>
<path d="M89.1725 24C87.9444 24 86.8914 23.8356 86.0134 23.5067C85.1414 23.1836 84.4473 22.7422 83.9312 22.1825C83.415 21.6228 83.0798 20.9939 82.9256 20.2957L86.4317 19.837C86.5385 20.1024 86.7075 20.3505 86.9389 20.5813C87.1703 20.8121 87.4758 20.9968 87.8555 21.1352C88.2411 21.2795 88.7097 21.3516 89.2614 21.3516C90.0861 21.3516 90.7653 21.1554 91.2992 20.7631C91.8391 20.3765 92.109 19.7274 92.109 18.8157V16.3837H91.9488C91.7827 16.753 91.5336 17.1021 91.2014 17.4309C90.8691 17.7598 90.442 18.0281 89.9199 18.2358C89.3979 18.4436 88.775 18.5474 88.0512 18.5474C87.0249 18.5474 86.0906 18.3166 85.2481 17.855C84.4117 17.3877 83.7443 16.6751 83.2459 15.7173C82.7536 14.7537 82.5074 13.5362 82.5074 12.0649C82.5074 10.559 82.7595 9.30112 83.2637 8.29138C83.768 7.28164 84.4384 6.52578 85.2748 6.0238C86.1173 5.52182 87.0397 5.27083 88.0423 5.27083C88.8076 5.27083 89.4483 5.39776 89.9644 5.65164C90.4806 5.89975 90.8958 6.21132 91.2103 6.58637C91.5306 6.95564 91.7768 7.31915 91.9488 7.67688H92.0912V5.44392H95.8554V18.8677C95.8554 19.9986 95.5706 20.9448 95.0011 21.7065C94.4316 22.4681 93.6426 23.0393 92.634 23.4201C91.6315 23.8067 90.4776 24 89.1725 24ZM89.2526 15.7779C89.8636 15.7779 90.3797 15.6307 90.8009 15.3365C91.2281 15.0364 91.5543 14.6094 91.7798 14.0555C92.0111 13.4959 92.1268 12.8265 92.1268 12.0476C92.1268 11.2687 92.0141 10.5936 91.7887 10.0224C91.5632 9.44537 91.237 8.9982 90.8098 8.68085C90.3827 8.36351 89.8636 8.20483 89.2526 8.20483C88.6296 8.20483 88.1046 8.36928 87.6775 8.69816C87.2504 9.02128 86.927 9.47133 86.7075 10.0483C86.488 10.6253 86.3783 11.2917 86.3783 12.0476C86.3783 12.815 86.488 13.4785 86.7075 14.0382C86.933 14.5921 87.2563 15.022 87.6775 15.3278C88.1046 15.6278 88.6296 15.7779 89.2526 15.7779Z" fill="#DFDFDF"/>
<path d="M97.8697 18.7378V5.44392H101.66V18.7378H97.8697ZM99.774 3.73026C99.2104 3.73026 98.7269 3.5485 98.3235 3.185C97.926 2.81572 97.7273 2.37432 97.7273 1.8608C97.7273 1.35305 97.926 0.917418 98.3235 0.553914C98.7269 0.184638 99.2104 0 99.774 0C100.338 0 100.818 0.184638 101.216 0.553914C101.619 0.917418 101.821 1.35305 101.821 1.8608C101.821 2.37432 101.619 2.81572 101.216 3.185C100.818 3.5485 100.338 3.73026 99.774 3.73026Z" fill="#DFDFDF"/>
<path d="M107.486 11.0523V18.7378H103.695V5.44392H107.308V7.7894H107.468C107.77 7.01623 108.278 6.40462 108.99 5.95456C109.701 5.49874 110.565 5.27083 111.579 5.27083C112.528 5.27083 113.356 5.47277 114.062 5.87667C114.768 6.28056 115.316 6.85756 115.708 7.60765C116.1 8.35197 116.295 9.24053 116.295 10.2733V18.7378H112.504V10.9311C112.51 10.1176 112.297 9.48287 111.864 9.02705C111.431 8.56545 110.835 8.33466 110.075 8.33466C109.565 8.33466 109.114 8.4414 108.723 8.65489C108.337 8.86837 108.034 9.17995 107.815 9.58961C107.601 9.99351 107.492 10.4811 107.486 11.0523Z" fill="#DFDFDF"/>
<path d="M118.583 18.7378H116.27L125.987 1.01262H128.265L131.931 18.7378H129.618L126.734 3.81681H126.592L118.583 18.7378ZM120.612 11.8139H129.938L129.618 13.718H120.292L120.612 11.8139Z" fill="#DFDFDF"/>
<path d="M139 1.01262L135.974 18.7378H133.768L136.793 1.01262H139Z" fill="#DFDFDF"/>
<path fill-rule="evenodd" clip-rule="evenodd" d="M0.0504584 7.77988C0.725491 5.32869 7.98251 5.06756 16.5441 7.10298C25.1012 5.07023 32.3523 5.33159 33.027 7.78178C33.3625 9.00108 32.0079 10.5415 29.5218 12.0793C32.0062 13.6167 33.3596 15.157 33.0241 16.3758C32.349 18.8256 25.0992 19.0859 16.5432 17.0537C7.98384 19.0881 0.729423 18.8289 0.0533949 16.3787C-0.282359 15.1595 1.07085 13.6173 3.55671 12.0793C1.06947 10.5411 -0.284825 8.99943 0.0504584 7.77988ZM4.75385 13.077C3.44547 13.8477 2.52683 14.5702 1.9925 15.1782C1.54057 15.6925 1.50955 15.9461 1.50797 15.9988C1.53698 16.0444 1.69539 16.2498 2.34978 16.4748C3.125 16.7413 4.29183 16.92 5.8208 16.9509C7.91741 16.9932 10.5296 16.7547 13.4118 16.2216C10.1639 15.264 7.28074 14.1114 5.02793 12.919C4.93532 12.9718 4.84353 13.0242 4.75385 13.077ZM28.0515 12.919C25.8003 14.1108 22.9194 15.2631 19.6735 16.2206C22.5527 16.7527 25.162 16.9903 27.2567 16.948C28.7859 16.9171 29.9535 16.7386 30.7287 16.472C31.3808 16.2476 31.539 16.0431 31.5686 15.9969C31.567 15.9442 31.5368 15.6895 31.085 15.1753C30.5506 14.5674 29.6317 13.8456 28.3237 13.0751C28.2346 13.0227 28.1434 12.9714 28.0515 12.919ZM16.5432 8.60815C16.246 8.68069 15.9469 8.75642 15.6465 8.83474C12.1614 9.74335 9.0546 10.8904 6.62248 12.0793C9.05423 13.2674 12.16 14.4137 15.6436 15.3219C15.9448 15.4004 16.2453 15.4748 16.5432 15.5476C16.8382 15.4755 17.1356 15.4025 17.4339 15.3248C20.9191 14.4161 24.0257 13.2679 26.458 12.0793C24.0254 10.8899 20.9175 9.74182 17.431 8.83283C17.1334 8.75526 16.8375 8.68006 16.5432 8.60815ZM27.2606 7.20961C25.165 7.16728 22.5534 7.40276 19.6726 7.93506C22.9192 8.89291 25.8002 10.0472 28.0515 11.2396C28.1443 11.1866 28.2367 11.1354 28.3266 11.0825C29.6347 10.312 30.5536 9.59019 31.0879 8.9823C31.5386 8.46947 31.5697 8.21446 31.5715 8.16069C31.5423 8.115 31.3849 7.91041 30.7316 7.68563C29.9566 7.41908 28.7895 7.24054 27.2606 7.20961ZM5.81786 7.2077C4.28859 7.23859 3.12206 7.41714 2.34685 7.68372C1.69056 7.90942 1.53338 8.11404 1.50503 8.15879C1.50676 8.21234 1.53849 8.46715 1.98957 8.9804C2.52396 9.58828 3.44284 10.3101 4.75091 11.0806C4.84108 11.1337 4.93382 11.1855 5.02695 11.2386C7.27961 10.0458 10.1634 8.89303 13.4118 7.93506C10.5285 7.40192 7.91513 7.16537 5.81786 7.2077Z" fill="#F550A2"/>
</svg>
